<?xml version="1.0" standalone="no"?>
<!DOCTYPE svg PUBLIC "-//W3C//DTD SVG 20010904//EN"
 "http://www.w3.org/TR/2001/REC-SVG-20010904/DTD/svg10.dtd">
<svg version="1.0" xmlns="http://www.w3.org/2000/svg"
 width="700.000000pt" height="700.000000pt" viewBox="0 0 700.000000 700.000000"
 preserveAspectRatio="xMidYMid meet">
<metadata>
Created by potrace 1.14, written by Peter Selinger 2001-2017
</metadata>
<g transform="translate(0.000000,700.000000) scale(0.100000,-0.100000)"
fill="#000000" stroke="none">
<path d="M0 3500 l0 -3500 3500 0 3500 0 0 3500 0 3500 -3500 0 -3500 0 0
-3500z m2550 1522 c451 -105 733 -388 776 -779 l7 -63 -266 0 -265 0 -6 44
c-18 118 -119 240 -249 301 -187 90 -467 87 -654 -5 -137 -68 -212 -171 -221
-306 -9 -135 45 -233 171 -315 88 -57 192 -93 475 -165 333 -84 391 -103 547
-179 260 -127 420 -300 480 -520 22 -82 30 -262 16 -354 -65 -419 -410 -697
-932 -752 -157 -16 -425 -7 -562 20 -262 52 -450 150 -600 311 -126 137 -209
328 -224 523 l-6 77 266 0 266 0 6 -37 c36 -212 174 -351 410 -414 104 -28
322 -31 435 -6 176 39 331 155 380 284 31 82 31 190 0 261 -44 102 -171 189
-370 255 -41 14 -199 58 -350 97 -438 113 -601 190 -770 360 -135 134 -190
278 -190 494 0 244 67 407 237 579 152 153 374 259 633 302 124 21 446 13 560
-13z m3300 -242 l0 -230 -715 0 -715 0 0 -415 0 -415 665 0 665 0 0 -230 0
-230 -665 0 -665 0 0 -420 0 -420 720 0 720 0 0 -230 0 -230 -995 0 -995 0 0
1525 0 1525 990 0 990 0 0 -230z"/>
</g>
</svg>
