<svg width="60" height="60" viewBox="0 0 60 60" fill="none" xmlns="http://www.w3.org/2000/svg">
<rect width="60" height="60" rx="30" fill="url(#paint0_radial_505_879)"/>
<path fill-rule="evenodd" clip-rule="evenodd" d="M9.96448 29.3972C9.96448 18.2324 18.715 9.96271 30 9.96271C41.285 9.96271 50.0356 18.2374 50.0356 29.4022C50.0356 40.567 41.285 48.8367 30 48.8367C27.9714 48.8367 26.028 48.5662 24.1997 48.0653C23.8441 47.9701 23.4634 47.9952 23.1278 48.1454L19.1508 49.8985C18.1089 50.3594 16.9368 49.618 16.9018 48.481L16.7916 44.9147C16.7816 44.4739 16.5812 44.0632 16.2556 43.7727C12.3587 40.2865 9.96448 35.2375 9.96448 29.3972ZM23.8537 25.7457L17.9683 35.0823C17.4023 35.9789 18.5043 36.9857 19.3458 36.3445L25.667 31.546C26.0927 31.2204 26.6838 31.2204 27.1145 31.541L31.7978 35.0522C33.2053 36.1041 35.2089 35.7384 36.1455 34.2508L42.036 24.9192C42.597 24.0227 41.495 23.0109 40.6535 23.652L34.3323 28.4505C33.9066 28.7761 33.3155 28.7761 32.8847 28.4555L28.2015 24.9443C26.794 23.8924 24.7904 24.2581 23.8537 25.7457Z" fill="white"/>
<defs>
<radialGradient id="paint0_radial_505_879" cx="0" cy="0" r="1" gradientUnits="userSpaceOnUse" gradientTransform="translate(11.55 59.678) scale(65.376 65.3702)">
<stop stop-color="#0099FF"/>
<stop offset="0.6098" stop-color="#A033FF"/>
<stop offset="0.9348" stop-color="#FF5280"/>
<stop offset="1" stop-color="#FF7061"/>
</radialGradient>
</defs>
</svg>
