<svg width="48" height="48" viewBox="0 0 48 48" fill="none" xmlns="http://www.w3.org/2000/svg">
<circle cx="24" cy="24" r="24" fill="#222222"/>
<path d="M14.239 32.0292L13.5319 31.7793L13.5319 31.7793L14.239 32.0292ZM15.7703 33.5605L16.0201 34.2676L16.0201 34.2676L15.7703 33.5605ZM19.1582 32.7518L18.7945 33.4077L19.1582 32.7518ZM15.101 28.5662L15.768 28.2233L15.101 28.5662ZM15.1673 29.4022L15.8745 29.6521L15.1673 29.4022ZM14.75 24C14.75 18.8914 18.8914 14.75 24 14.75V13.25C18.0629 13.25 13.25 18.0629 13.25 24H14.75ZM15.768 28.2233C15.1175 26.9581 14.75 25.523 14.75 24H13.25C13.25 25.7671 13.677 27.4367 14.434 28.9092L15.768 28.2233ZM14.9462 32.2791L15.8745 29.6521L14.4602 29.1523L13.5319 31.7793L14.9462 32.2791ZM15.5204 32.8533C15.1637 32.9793 14.8201 32.6358 14.9462 32.2791L13.5319 31.7793C12.9857 33.3249 14.4746 34.8138 16.0201 34.2676L15.5204 32.8533ZM18.043 31.9619L15.5204 32.8533L16.0201 34.2676L18.5427 33.3762L18.043 31.9619ZM24 33.25C22.3739 33.25 20.848 32.8311 19.5218 32.0958L18.7945 33.4077C20.3375 34.2632 22.113 34.75 24 34.75V33.25ZM33.25 24C33.25 29.1086 29.1086 33.25 24 33.25V34.75C29.9371 34.75 34.75 29.9371 34.75 24H33.25ZM24 14.75C29.1086 14.75 33.25 18.8914 33.25 24H34.75C34.75 18.0629 29.9371 13.25 24 13.25V14.75ZM18.5427 33.3762C18.6082 33.3531 18.7001 33.3554 18.7945 33.4077L19.5218 32.0958C19.0862 31.8543 18.5489 31.7832 18.043 31.9619L18.5427 33.3762ZM14.434 28.9092C14.4814 29.0013 14.4824 29.0893 14.4602 29.1523L15.8745 29.6521C16.0463 29.1657 15.9871 28.6494 15.768 28.2233L14.434 28.9092Z" fill="white"/>
<circle cx="19.05" cy="24.0498" r="1.25" fill="white"/>
<circle cx="24.05" cy="24.0498" r="1.25" fill="white"/>
<circle cx="29.05" cy="24.0498" r="1.25" fill="white"/>
</svg>
