<svg width="60" height="60" viewBox="0 0 60 60" fill="none" xmlns="http://www.w3.org/2000/svg">
<rect width="60" height="60" rx="30" fill="url(#paint0_linear_505_909)"/>
<path d="M11.8025 47.4537L14.3748 38.1127C12.7845 35.371 11.9502 32.266 11.9589 29.0918C11.9589 19.1454 20.0931 11.0586 30.0782 11.0586C34.9274 11.0586 39.4812 12.9354 42.8964 16.3431C46.3204 19.7509 48.2062 24.2829 48.1975 29.1005C48.1975 39.0468 40.0634 47.1337 30.0695 47.1337H30.0608C27.0279 47.1337 24.0471 46.3726 21.3966 44.9368L11.8025 47.4537ZM21.8572 41.6761L22.4047 42.0048C24.7163 43.3713 27.3669 44.0892 30.0695 44.0979H30.0782C38.3775 44.0979 45.1386 37.3776 45.1386 29.1091C45.1386 25.1046 43.5743 21.3423 40.7326 18.5054C37.8908 15.6685 34.1018 14.1117 30.0782 14.1117C21.779 14.103 15.0179 20.8233 15.0179 29.0918C15.0179 31.92 15.8087 34.6791 17.3208 37.0662L17.6771 37.637L16.1563 43.1638L21.8572 41.6761Z" fill="white"/>
<path d="M12.4369 46.8223L14.9223 37.8014C13.3841 35.1634 12.5759 32.1622 12.5759 29.1005C12.5846 19.5 20.432 11.69 30.0782 11.69C34.7623 11.69 39.1509 13.5063 42.4532 16.7929C45.7556 20.0795 47.5718 24.4559 47.5718 29.1091C47.5718 38.7095 39.7158 46.5196 30.0782 46.5196H30.0695C27.1409 46.5196 24.2644 45.7844 21.7095 44.4006L12.4369 46.8223Z" fill="url(#paint1_linear_505_909)"/>
<path d="M11.8025 47.4537L14.3748 38.1127C12.7845 35.371 11.9502 32.266 11.9589 29.0918C11.9589 19.1454 20.0931 11.0586 30.0782 11.0586C34.9274 11.0586 39.4812 12.9354 42.8964 16.3431C46.3204 19.7509 48.2062 24.2829 48.1975 29.1005C48.1975 39.0468 40.0634 47.1337 30.0695 47.1337H30.0608C27.0279 47.1337 24.0471 46.3726 21.3966 44.9368L11.8025 47.4537ZM21.8572 41.6761L22.4047 42.0048C24.7163 43.3713 27.3669 44.0892 30.0695 44.0979H30.0782C38.3775 44.0979 45.1386 37.3776 45.1386 29.1091C45.1386 25.1046 43.5743 21.3423 40.7326 18.5054C37.8908 15.6685 34.1018 14.1117 30.0782 14.1117C21.779 14.103 15.0179 20.8233 15.0179 29.0918C15.0179 31.92 15.8087 34.6791 17.3208 37.0662L17.6771 37.637L16.1563 43.1638L21.8572 41.6761Z" fill="url(#paint2_linear_505_909)"/>
<path fill-rule="evenodd" clip-rule="evenodd" d="M25.5504 21.5498C25.2115 20.7974 24.8552 20.7801 24.5336 20.7714C24.2729 20.7628 23.9688 20.7628 23.6646 20.7628C23.3604 20.7628 22.8738 20.8752 22.4566 21.325C22.0395 21.7747 20.875 22.8645 20.875 25.0873C20.875 27.3014 22.5001 29.4464 22.726 29.7491C22.952 30.0518 25.8632 34.7483 30.4604 36.5559C34.2842 38.0608 35.0663 37.7581 35.8919 37.6803C36.7174 37.6024 38.5685 36.5905 38.9509 35.5353C39.3245 34.4801 39.3245 33.5806 39.2116 33.3904C39.0986 33.2001 38.7944 33.0876 38.3425 32.8628C37.8906 32.6379 35.6659 31.5481 35.2488 31.3924C34.8316 31.2454 34.5275 31.1676 34.232 31.6173C33.9279 32.0671 33.0588 33.079 32.7981 33.3817C32.5374 33.6844 32.268 33.719 31.8161 33.4941C31.3642 33.2693 29.9042 32.7936 28.1749 31.2541C26.8279 30.0605 25.9154 28.5815 25.6547 28.1318C25.394 27.682 25.6286 27.4398 25.8546 27.215C26.0544 27.016 26.3064 26.6874 26.5324 26.4279C26.7583 26.1684 26.8366 25.9781 26.9843 25.6754C27.132 25.3727 27.0625 25.1132 26.9495 24.8884C26.8366 24.6721 25.9501 22.4407 25.5504 21.5498Z" fill="white"/>
<defs>
<linearGradient id="paint0_linear_505_909" x1="29.9984" y1="59.997" x2="29.9984" y2="-0.00209924" gradientUnits="userSpaceOnUse">
<stop stop-color="#20B038"/>
<stop offset="1" stop-color="#60D66A"/>
</linearGradient>
<linearGradient id="paint1_linear_505_909" x1="30.0035" y1="46.8206" x2="30.0035" y2="11.6887" gradientUnits="userSpaceOnUse">
<stop stop-color="#20B038"/>
<stop offset="1" stop-color="#60D66A"/>
</linearGradient>
<linearGradient id="paint2_linear_505_909" x1="30.0036" y1="47.4502" x2="30.0036" y2="11.0586" gradientUnits="userSpaceOnUse">
<stop stop-color="#F9F9F9"/>
<stop offset="1" stop-color="white"/>
</linearGradient>
</defs>
</svg>
